<svg class="lds-gear" width="200px"  height="200px"  xmlns="http://www.w3.org/2000/svg" xmlns:xlink="http://www.w3.org/1999/xlink" viewBox="0 0 100 100" preserveAspectRatio="xMidYMid" style="background: none;"><g transform="translate(50 50)">
<g transform="rotate(348)">
<animateTransform attributeName="transform" type="rotate" values="0;360" keyTimes="0;1" dur="1s" repeatCount="indefinite"></animateTransform><path d="M19.364916731037084 -5 L29.364916731037084 -5 L29.364916731037084 5 L19.364916731037084 5 A20 20 0 0 1 18.04832490170538 8.617306321727309 L18.04832490170538 8.617306321727309 L25.708769332895162 15.045182418592702 L19.280893236029765 22.705626849782483 L11.620448804839986 16.27775075291709 A20 20 0 0 1 8.28672126607748 18.202479244826492 L8.28672126607748 18.202479244826492 L10.023203042746784 28.050556774948575 L0.17512551262470644 29.787038551617876 L-1.5613562640445977 19.938961021495796 A20 20 0 0 1 -5.352331346596346 19.270509831248425 L-5.352331346596346 19.270509831248425 L-10.352331346596344 27.930763869092814 L-19.012585384440733 22.930763869092814 L-14.012585384440735 14.270509831248424 A20 20 0 0 1 -16.486968637660777 11.32165469976849 L-16.486968637660777 11.32165469976849 L-25.883894845519862 14.74185613302518 L-29.304096278776548 5.344929925166092 L-19.907170070917466 1.924728491909402 A20 20 0 0 1 -19.907170070917466 -1.9247284919093972 L-19.907170070917466 -1.9247284919093972 L-29.30409627877655 -5.344929925166084 L-25.883894845519865 -14.741856133025173 L-16.48696863766078 -11.321654699768487 A20 20 0 0 1 -14.012585384440746 -14.270509831248415 L-14.012585384440746 -14.270509831248415 L-19.012585384440747 -22.9307638690928 L-10.352331346596358 -27.930763869092807 L-5.352331346596355 -19.27050983124842 A20 20 0 0 1 -1.5613562640446115 -19.938961021495796 L-1.5613562640446115 -19.938961021495796 L0.17512551262468823 -29.787038551617876 L10.023203042746776 -28.050556774948575 L8.286721266077476 -18.202479244826495 A20 20 0 0 1 11.620448804839981 -16.277750752917093 L11.620448804839981 -16.277750752917093 L19.280893236029762 -22.70562684978249 L25.70876933289516 -15.04518241859271 L18.048324901705378 -8.617306321727312 A20 20 0 0 1 19.364916731037084 -5.000000000000008 M0 -10A10 10 0 1 0 0 10 A10 10 0 1 0 0 -10" fill="#f64a35"></path></g></g></svg>